<svg width="136" height="17" viewBox="0 0 136 17" fill="none" xmlns="http://www.w3.org/2000/svg">
<path d="M127.897 13.3468V11.4786H126.008V5.64591H127.897V3.75702H133.75V5.64591H135.66V7.70085H133.543V5.83272H128.104V7.49328H131.882V9.58974H128.104V11.2711H133.543V9.36142H135.66V11.4579H133.75V13.3468H127.897Z" fill="black"/>
<path d="M118.45 13.3468V11.4786H116.561V7.70085H114.672V3.75702H116.768V7.49328H118.636V11.2711H120.338V7.49328H122.207V3.75702H124.324V7.70085H122.414V11.4786H120.546V13.3468H118.45Z" fill="black"/>
<path d="M110.278 13.3468V3.75702H112.374V13.3468H110.278ZM110.278 2.09646V0H112.374V2.09646H110.278Z" fill="black"/>
<path d="M98.1156 13.3468V5.64591H100.005V3.75702H105.858V5.64591H107.768V7.70085H105.65V5.83272H100.212V13.3468H98.1156Z" fill="black"/>
<path d="M85.9533 13.3468V0H91.8276V1.88889H93.6957V3.75702H95.6053V9.58975H93.6957V11.4786H91.8276V13.3468H85.9533ZM88.0498 11.2711H91.62V9.38218H93.4881V3.96459H91.62V2.09646H88.0498V11.2711Z" fill="black"/>
<path d="M69.6393 13.3468V11.4786H67.7504V5.64591H69.6393V3.75702H75.4928V5.64591H77.4024V11.2711H79.2913V13.3468H77.1948V11.4786H75.4928V13.3468H69.6393ZM69.8468 11.2711H75.2852V5.83272H69.8468V11.2711Z" fill="black"/>
<path d="M56.2164 13.3468V3.75702H63.9588V5.64591H65.8685V13.3468H63.7512V5.83272H58.3129V13.3468H56.2164Z" fill="black"/>
<path d="M44.0541 17V5.64591H45.943V3.75702H51.7965V5.64591H53.7061V11.4786H51.7965V13.3468H46.1506V17H44.0541ZM46.1506 11.2711H51.5889V5.83272H46.1506V11.2711Z" fill="black"/>
<path d="M31.8918 13.3468V3.75702H33.7807V1.88889H35.6488V0H37.766V1.88889H39.6342V3.75702H41.5438V13.3468H39.4266V9.58975H33.9883V13.3468H31.8918ZM33.9883 7.49329H39.4266V3.96459H37.5585V2.09646H35.8564V3.96459H33.9883V7.49329Z" fill="black"/>
<path d="M10.2503 0C10.0579 0 9.93759 0.208329 10.0338 0.374995L19.5596 16.875C19.6043 16.9523 19.6868 17 19.7761 17H28.437C28.6295 17 28.7498 16.7917 28.6535 16.625L19.1268 0.124996C19.0821 0.0476484 18.9996 0 18.9103 0H10.2503Z" fill="#28282B" fill-opacity="0.82"/>
<path d="M18.4371 0C18.6296 0 18.7498 0.208329 18.6536 0.374995L9.12783 16.875C9.08317 16.9523 9.00064 17 8.91132 17H0.250406C0.0579539 17 -0.0623274 16.7917 0.0339023 16.625L9.56064 0.124996C9.6053 0.0476484 9.68783 0 9.77715 0H18.4371Z" fill="#28282B"/>
</svg>
