<svg width="145" height="17" viewBox="0 0 145 17" fill="none" xmlns="http://www.w3.org/2000/svg">
<path d="M136.692 13.3468V11.4786H134.804V5.64591H136.692V3.75702H142.546V5.64591H144.456V7.70085H142.338V5.83272H136.9V7.49328H140.678V9.58974H136.9V11.2711H142.338V9.36142H144.456V11.4579H142.546V13.3468H136.692Z" fill="white"/>
<path d="M127.245 13.3468V11.4786H125.356V7.70085H123.467V3.75702H125.564V7.49328H127.432V11.2711H129.134V7.49328H131.002V3.75702H133.119V7.70085H131.21V11.4786H129.342V13.3468H127.245Z" fill="white"/>
<path d="M119.074 13.3468V3.75702H121.17V13.3468H119.074ZM119.074 2.09646V0H121.17V2.09646H119.074Z" fill="white"/>
<path d="M106.911 13.3468V5.64591H108.8V3.75702H114.654V5.64591H116.563V7.70085H114.446V5.83272H109.008V13.3468H106.911Z" fill="white"/>
<path d="M94.749 13.3468V0H100.623V1.88889H102.491V3.75702H104.401V9.58975H102.491V11.4786H100.623V13.3468H94.749ZM96.8454 11.2711H100.416V9.38218H102.284V3.96459H100.416V2.09646H96.8454V11.2711Z" fill="white"/>
<path d="M78.4349 13.3468V11.4786H76.546V5.64591H78.4349V3.75702H84.2884V5.64591H86.198V11.2711H88.0869V13.3468H85.9905V11.4786H84.2884V13.3468H78.4349ZM78.6425 11.2711H84.0808V5.83272H78.6425V11.2711Z" fill="white"/>
<path d="M65.0121 13.3468V3.75702H72.7545V5.64591H74.6641V13.3468H72.5469V5.83272H67.1085V13.3468H65.0121Z" fill="white"/>
<path d="M52.8498 17V5.64591H54.7386V3.75702H60.5921V5.64591H62.5018V11.4786H60.5921V13.3468H54.9462V17H52.8498ZM54.9462 11.2711H60.3846V5.83272H54.9462V11.2711Z" fill="white"/>
<path d="M40.6874 13.3468V3.75702H42.5763V1.88889H44.4445V0H46.5617V1.88889H48.4298V3.75702H50.3395V13.3468H48.2222V9.58975H42.7839V13.3468H40.6874ZM42.7839 7.49329H48.2222V3.96459H46.3541V2.09646H44.652V3.96459H42.7839V7.49329Z" fill="white"/>
<path d="M10.2503 0C10.0579 0 9.93759 0.208329 10.0338 0.374995L19.5596 16.875C19.6043 16.9523 19.6868 17 19.7761 17H28.437C28.6295 17 28.7498 16.7917 28.6535 16.625L19.1268 0.124996C19.0821 0.0476484 18.9996 0 18.9103 0H10.2503Z" fill="white" fill-opacity="0.82"/>
<path d="M18.4371 0C18.6296 0 18.7498 0.208329 18.6536 0.374995L9.12783 16.875C9.08317 16.9523 9.00064 17 8.91132 17H0.250406C0.0579539 17 -0.0623274 16.7917 0.0339023 16.625L9.56064 0.124996C9.6053 0.0476484 9.68783 0 9.77715 0H18.4371Z" fill="#D4D4D4"/>
</svg>
