<svg width="29" height="17" viewBox="0 0 29 17" fill="none" xmlns="http://www.w3.org/2000/svg">
<path d="M10.2503 0C10.0579 0 9.93759 0.208329 10.0338 0.374995L19.5596 16.875C19.6043 16.9523 19.6868 17 19.7761 17H28.437C28.6295 17 28.7498 16.7917 28.6535 16.625L19.1268 0.124996C19.0821 0.0476484 18.9996 0 18.9103 0H10.2503Z" fill="#28282B" fill-opacity="0.82"/>
<path d="M18.4371 0C18.6296 0 18.7498 0.208329 18.6536 0.374995L9.12783 16.875C9.08317 16.9523 9.00064 17 8.91132 17H0.250406C0.0579539 17 -0.0623274 16.7917 0.0339023 16.625L9.56064 0.124996C9.6053 0.0476484 9.68783 0 9.77715 0H18.4371Z" fill="#28282B"/>
</svg>
